<?xml version="1.0" standalone="yes"?>

<svg version="1.1" viewBox="0.0 0.0 554.6745406824147 543.6824146981627" fill="none" stroke="none" stroke-linecap="square" stroke-miterlimit="10" xmlns="http://www.w3.org/2000/svg" xmlns:xlink="http://www.w3.org/1999/xlink"><clipPath id="p.0"><path d="m0 0l554.67456 0l0 543.68243l-554.67456 0l0 -543.68243z" clip-rule="nonzero"></path></clipPath><g clip-path="url(#p.0)"><path fill="#000000" fill-opacity="0.0" d="m0 0l554.67456 0l0 543.68243l-554.67456 0z" fill-rule="evenodd"></path><path fill="#00ffff" d="m4.505629 294.95496l0 0c0 -135.99278 122.150894 -246.23672 272.83167 -246.23672l0 0c150.68076 0 272.83167 110.24394 272.83167 246.23672l0 0c0 135.99277 -122.15091 246.2367 -272.83167 246.2367l0 0c-150.68076 0 -272.83167 -110.24393 -272.83167 -246.2367z" fill-rule="evenodd"></path><path stroke="#000000" stroke-width="2.0" stroke-linejoin="round" stroke-linecap="butt" d="m4.505629 294.95496l0 0c0 -135.99278 122.150894 -246.23672 272.83167 -246.23672l0 0c150.68076 0 272.83167 110.24394 272.83167 246.23672l0 0c0 135.99277 -122.15091 246.2367 -272.83167 246.2367l0 0c-150.68076 0 -272.83167 -110.24393 -272.83167 -246.2367z" fill-rule="evenodd"></path><path fill="#00ffff" d="m4.505629 255.77568l0 0c0 -139.88591 122.150894 -253.28584 272.83167 -253.28584l0 0c150.68076 0 272.83167 113.39993 272.83167 253.28584l0 0c0 139.88591 -122.15091 253.28584 -272.83167 253.28584l0 0c-150.68076 0 -272.83167 -113.39993 -272.83167 -253.28584z" fill-rule="evenodd"></path><path stroke="#000000" stroke-width="2.0" stroke-linejoin="round" stroke-linecap="butt" d="m4.505629 255.77568l0 0c0 -139.88591 122.150894 -253.28584 272.83167 -253.28584l0 0c150.68076 0 272.83167 113.39993 272.83167 253.28584l0 0c0 139.88591 -122.15091 253.28584 -272.83167 253.28584l0 0c-150.68076 0 -272.83167 -113.39993 -272.83167 -253.28584z" fill-rule="evenodd"></path><path fill="#1ad8c6" d="m4.505629 270.53296l0 0c0 -135.99278 122.150894 -246.23672 272.83167 -246.23672l0 0c150.68076 0 272.83167 110.243935 272.83167 246.23672l0 0c0 135.99277 -122.15091 246.2367 -272.83167 246.2367l0 0c-150.68076 0 -272.83167 -110.24393 -272.83167 -246.2367z" fill-rule="evenodd"></path><path stroke="#000000" stroke-width="2.0" stroke-linejoin="round" stroke-linecap="butt" d="m4.505629 270.53296l0 0c0 -135.99278 122.150894 -246.23672 272.83167 -246.23672l0 0c150.68076 0 272.83167 110.243935 272.83167 246.23672l0 0c0 135.99277 -122.15091 246.2367 -272.83167 246.2367l0 0c-150.68076 0 -272.83167 -110.24393 -272.83167 -246.2367z" fill-rule="evenodd"></path><path fill="#000000" fill-opacity="0.0" d="m120.02169 439.58432c-15.56028 0 -28.174377 -12.614105 -28.174377 -28.174377l0 -112.704285c0 -15.560272 -12.614098 -28.174377 -28.174377 -28.174377l0 0c15.56028 0 28.174377 -12.614105 28.174377 -28.174377l0 -112.70427l0 0c0 -15.56028 12.614098 -28.174385 28.174377 -28.174385l314.63116 0c7.4723206 0 14.63858 2.9683685 19.922302 8.25209c5.283722 5.2837143 8.252075 12.449982 8.252075 19.922295l0 112.70427c0 15.560272 12.614105 28.174377 28.174377 28.174377c-15.560272 0 -28.174377 12.614105 -28.174377 28.174377l0 112.704285c0 15.560272 -12.614075 28.174377 -28.174377 28.174377z" fill-rule="evenodd"></path><path fill="#000000" fill-opacity="0.0" d="m120.02169 439.58432c-15.56028 0 -28.174377 -12.614105 -28.174377 -28.174377l0 -112.704285c0 -15.560272 -12.614098 -28.174377 -28.174377 -28.174377l0 0c15.56028 0 28.174377 -12.614105 28.174377 -28.174377l0 -112.70427l0 0c0 -15.56028 12.614098 -28.174385 28.174377 -28.174385m314.63116 0c7.4723206 0 14.63858 2.9683685 19.922302 8.25209c5.283722 5.2837143 8.252075 12.449982 8.252075 19.922295l0 112.70427c0 15.560272 12.614105 28.174377 28.174377 28.174377c-15.560272 0 -28.174377 12.614105 -28.174377 28.174377l0 112.704285c0 15.560272 -12.614075 28.174377 -28.174377 28.174377" fill-rule="evenodd"></path><path stroke="#000000" stroke-width="2.0" stroke-linejoin="round" stroke-linecap="butt" d="m120.02169 439.58432c-15.56028 0 -28.174377 -12.614105 -28.174377 -28.174377l0 -112.704285c0 -15.560272 -12.614098 -28.174377 -28.174377 -28.174377l0 0c15.56028 0 28.174377 -12.614105 28.174377 -28.174377l0 -112.70427l0 0c0 -15.56028 12.614098 -28.174385 28.174377 -28.174385m314.63116 0c7.4723206 0 14.63858 2.9683685 19.922302 8.25209c5.283722 5.2837143 8.252075 12.449982 8.252075 19.922295l0 112.70427c0 15.560272 12.614105 28.174377 28.174377 28.174377c-15.560272 0 -28.174377 12.614105 -28.174377 28.174377l0 112.704285c0 15.560272 -12.614075 28.174377 -28.174377 28.174377" fill-rule="evenodd"></path><path fill="#00ffff" d="m438.91275 270.53128l-65.20242 24.26062l0 -48.52124zm-47.335632 -119.542404l-29.700562 65.39998l-32.791687 -34.309235zm-114.23984 -49.510628l23.18753 68.21993l-46.375046 0zm-114.25479 49.510628l62.507202 31.090744l-32.79167 34.309235zm-47.32067 119.542404l65.202415 -24.26062l0 48.52124zm47.32067 119.526764l29.71553 -65.38434l32.79167 34.309235zm114.25479 49.526276l-23.187515 -68.21994l46.375046 0zm114.23984 -49.526276l-62.49225 -31.075104l32.791687 -34.309235zm-195.02757 -119.526764l0 0c0 -46.68271 36.169907 -84.52652 80.787735 -84.52652c44.61783 0 80.78772 37.84381 80.78772 84.52652c0 46.68271 -36.16989 84.52652 -80.78772 84.52652c-44.61783 0 -80.787735 -37.84381 -80.787735 -84.52652z" fill-rule="evenodd"></path><path stroke="#000000" stroke-width="2.0" stroke-linejoin="round" stroke-linecap="butt" d="m438.91275 270.53128l-65.20242 24.26062l0 -48.52124zm-47.335632 -119.542404l-29.700562 65.39998l-32.791687 -34.309235zm-114.23984 -49.510628l23.18753 68.21993l-46.375046 0zm-114.25479 49.510628l62.507202 31.090744l-32.79167 34.309235zm-47.32067 119.542404l65.202415 -24.26062l0 48.52124zm47.32067 119.526764l29.71553 -65.38434l32.79167 34.309235zm114.25479 49.526276l-23.187515 -68.21994l46.375046 0zm114.23984 -49.526276l-62.49225 -31.075104l32.791687 -34.309235zm-195.02757 -119.526764l0 0c0 -46.68271 36.169907 -84.52652 80.787735 -84.52652c44.61783 0 80.78772 37.84381 80.78772 84.52652c0 46.68271 -36.16989 84.52652 -80.78772 84.52652c-44.61783 0 -80.787735 -37.84381 -80.787735 -84.52652z" fill-rule="evenodd"></path></g></svg>

